<?xml version="1.0" encoding="utf-8"?>
<!-- Generator: Adobe Illustrator 21.1.0, SVG Export Plug-In . SVG Version: 6.00 Build 0)  -->
<svg version="1.1" id="Layer_1" xmlns="http://www.w3.org/2000/svg" xmlns:xlink="http://www.w3.org/1999/xlink" x="0px" y="0px"
	 viewBox="0 0 500 500" style="enable-background:new 0 0 500 500;" xml:space="preserve">
<defs>
	<path id="SVGID_1_" d="M121.4,252c-0.2-0.7-0.4-1.4-0.6-2.1c-0.2-0.7-0.4-1.2-0.5-1.7c-0.2-0.5-0.3-1.1-0.4-1.6
		c-0.1,0.5-0.2,1.1-0.4,1.7c-0.1,0.5-0.3,1.1-0.5,1.8c-0.2,0.7-0.4,1.4-0.6,2.2l-9.6,30.3H97.5L81.2,224h11.9l9.4,34.8
		c0.4,1.4,0.8,3,1.1,4.6s0.7,3.2,1.1,4.6c0.4,1.7,0.8,3.4,1.1,5c0.5-1.8,1.1-3.6,1.7-5.3c0.5-1.5,1-3,1.5-4.7c0.5-1.7,1-3.1,1.4-4.3
		l8.7-27.4h6.5l9,27.4c0.4,1.2,0.8,2.7,1.3,4.3c0.5,1.6,1,3.2,1.4,4.7c0.5,1.7,1,3.5,1.5,5.4c0.5-1.8,0.9-3.6,1.4-5.3
		c0.4-1.5,0.8-3,1.2-4.7c0.4-1.7,0.8-3.1,1.1-4.3l9-34.8h6.8l-15.9,58.5h-11.1L121.4,252z M197.4,276.8c0.9,0,2.2-0.2,3.9-0.7v2.7
		c-0.6,0.6-1.3,1.1-2.1,1.6c-0.8,0.5-1.7,1-2.6,1.4c-0.9,0.4-1.9,0.7-2.8,1c-1,0.2-1.9,0.3-2.9,0.3c-1,0-1.9-0.1-2.6-0.4
		c-0.7-0.3-1.3-0.7-1.9-1.1c-0.5-0.4-1-1-1.3-1.6c-0.4-0.6-0.7-1.2-0.9-1.7c-0.9,0.6-1.9,1.3-2.8,1.9c-0.9,0.6-1.9,1.2-2.9,1.6
		c-1,0.5-2,0.8-3.1,1.1c-1.1,0.3-2.3,0.4-3.7,0.4c-3,0-5.4-1-7.2-2.9c-1.8-1.9-2.6-4.8-2.6-8.6c0-2,0.3-3.8,0.8-5.3s1.4-2.8,2.5-3.8
		c1.2-1,2.7-1.8,4.5-2.3s4.1-0.8,6.7-0.9l6.7-0.2v-5.7c0-1.5-0.4-2.7-1.2-3.4s-2.2-1.1-4.2-1.1c-1.4,0-3,0.2-4.9,0.5
		c-1.8,0.3-3.8,0.9-5.8,1.7l-1.5-4c1.4-0.6,2.8-1.2,4.2-1.7s2.9-1.1,4.4-1.5c1.5-0.4,3-0.8,4.6-1.1c1.5-0.3,3.1-0.4,4.6-0.4
		c1.7,0,3.3,0.2,4.7,0.5c1.4,0.3,2.5,0.9,3.4,1.6c0.9,0.8,1.6,1.8,2.1,3c0.5,1.3,0.7,2.8,0.7,4.7v18
		C194.3,274.7,195.3,276.8,197.4,276.8z M183.6,274.9c0-0.2-0.1-0.6-0.1-1.3c0-0.7-0.1-1.6-0.1-2.7c0-1.1-0.1-2.3-0.1-3.7
		c0-1.4,0-2.8,0-4.3c-2.7,0-4.8,0.2-6.1,0.5c-1.4,0.3-2.2,0.7-2.6,1.2c-0.2,0.2-0.3,0.5-0.4,1c-0.1,0.5-0.2,1-0.3,1.6
		c-0.1,0.6-0.1,1.2-0.1,1.8c0,0.6,0,1.2,0,1.7c0,1.8,0.2,3.2,0.7,4.3s1.3,1.7,2.4,1.7c1.2,0,2.4-0.1,3.5-0.4
		C181.4,275.8,182.5,275.4,183.6,274.9z M218.7,282.6h-11.1v-64.1l11.1-2.3V282.6z M242.3,282.6h-11.1v-64.1l11.1-2.3V282.6z
		 M277.3,283.4c-4.4,0-8.1-0.7-11.1-2.2c-3-1.5-5.5-3.6-7.4-6.2s-3.3-5.9-4.2-9.6s-1.3-7.9-1.3-12.5c0-3.7,0.4-7,1.3-9.9
		c0.8-2.9,2-5.4,3.5-7.6c1.5-2.2,3.2-4,5.1-5.6s4-2.8,6.1-3.7s4.3-1.6,6.6-2.1c2.2-0.4,4.4-0.6,6.5-0.6c1.3,0,2.7,0,4.2,0.1
		c1.5,0.1,2.9,0.2,4.3,0.3c1.4,0.1,2.7,0.3,3.8,0.5c1.2,0.2,2.2,0.4,2.9,0.5l-2.1,8.3c-0.8-0.3-1.8-0.5-3.2-0.8
		c-1.4-0.3-2.9-0.5-4.5-0.8s-3.2-0.5-4.7-0.6c-1.5-0.2-2.8-0.3-3.8-0.3c-1.1,0-2.2,0-3,0.1s-1.7,0.2-2.4,0.4s-1.4,0.5-2.1,0.8
		c-0.7,0.3-1.3,0.8-2,1.3c-1.7,1.2-2.9,3.6-3.5,7s-0.9,7.7-0.9,12.8c0,7.9,1.2,13.8,3.5,17.9c2.3,4,6.1,6.1,11.2,6.1
		c2.9,0,6-0.2,9.1-0.7s6.1-1.2,8.6-2.1v4.9c-1.4,0.7-3,1.3-4.7,1.8c-1.7,0.5-3.4,1-5.1,1.3s-3.5,0.6-5.3,0.8S279,283.4,277.3,283.4z
		 M318.3,248c0.8-0.5,1.7-1.1,2.8-1.7c1.1-0.6,2.3-1.2,3.5-1.7c1.3-0.5,2.6-1,3.9-1.4c1.4-0.4,2.7-0.6,4-0.6c1.5,0,2.9,0.2,4.2,0.7
		c1.3,0.5,2.4,1.2,3.4,2.2c1,1,1.7,2.1,2.3,3.6c0.6,1.4,0.9,3.1,0.9,5.1v28.4h-11.1v-26.2c0-2.3-0.4-4-1.1-5.1
		c-0.7-1.1-2-1.6-3.8-1.6c-0.6,0-1.3,0.1-2.1,0.3c-0.8,0.2-1.6,0.4-2.3,0.7c-0.8,0.3-1.6,0.7-2.3,1.1c-0.8,0.4-1.5,0.8-2.1,1.3v29.6
		h-11.1v-64.1l11.1-2.2v24.3c0,0.7,0,1.5,0,2.3c0,0.9,0,1.7-0.1,2.4c0,0.9-0.1,1.8-0.1,2.7H318.3z M387.9,276.8
		c0.9,0,2.2-0.2,3.9-0.7v2.7c-0.6,0.6-1.3,1.1-2.1,1.6c-0.8,0.5-1.7,1-2.6,1.4c-0.9,0.4-1.9,0.7-2.8,1c-1,0.2-1.9,0.3-2.9,0.3
		c-1,0-1.9-0.1-2.6-0.4c-0.7-0.3-1.3-0.7-1.9-1.1c-0.5-0.4-1-1-1.3-1.6s-0.7-1.2-0.9-1.7c-0.9,0.6-1.9,1.3-2.8,1.9s-1.9,1.2-2.9,1.6
		c-1,0.5-2,0.8-3.1,1.1c-1.1,0.3-2.3,0.4-3.7,0.4c-3,0-5.4-1-7.2-2.9s-2.6-4.8-2.6-8.6c0-2,0.3-3.8,0.8-5.3c0.5-1.5,1.4-2.8,2.5-3.8
		c1.2-1,2.7-1.8,4.5-2.3s4.1-0.8,6.7-0.9l6.7-0.2v-5.7c0-1.5-0.4-2.7-1.2-3.4c-0.8-0.7-2.2-1.1-4.2-1.1c-1.4,0-3,0.2-4.9,0.5
		c-1.8,0.3-3.8,0.9-5.8,1.7l-1.5-4c1.4-0.6,2.8-1.2,4.2-1.7c1.5-0.6,2.9-1.1,4.4-1.5c1.5-0.4,3-0.8,4.6-1.1c1.5-0.3,3.1-0.4,4.6-0.4
		c1.7,0,3.3,0.2,4.7,0.5s2.5,0.9,3.4,1.6s1.6,1.8,2.1,3c0.5,1.3,0.7,2.8,0.7,4.7v18C384.8,274.7,385.8,276.8,387.9,276.8z
		 M374.1,274.9c0-0.2-0.1-0.6-0.1-1.3c0-0.7-0.1-1.6-0.1-2.7c0-1.1-0.1-2.3-0.1-3.7c0-1.4,0-2.8,0-4.3c-2.7,0-4.8,0.2-6.1,0.5
		c-1.4,0.3-2.2,0.7-2.6,1.2c-0.2,0.2-0.3,0.5-0.4,1c-0.1,0.5-0.2,1-0.3,1.6c-0.1,0.6-0.1,1.2-0.1,1.8c0,0.6,0,1.2,0,1.7
		c0,1.8,0.2,3.2,0.7,4.3c0.5,1.1,1.3,1.7,2.4,1.7c1.2,0,2.4-0.1,3.5-0.4C371.9,275.8,373,275.4,374.1,274.9z M398.4,248.9l-4.2-1.4
		v-2.3l12-8.5h3.1l0.1,6.9h11.9l-0.5,4.3c-0.9,0.2-2,0.3-3.3,0.4s-2.5,0.2-3.7,0.3c-1.4,0.1-2.8,0.3-4.3,0.4v22
		c0,1.4,0.3,2.6,0.8,3.5s1.6,1.4,3.2,1.4c0.4,0,1,0,1.7-0.1c0.7,0,1.5-0.1,2.3-0.2c0.8-0.1,1.5-0.2,2.3-0.3s1.4-0.2,1.9-0.3v3.2
		c-0.9,0.6-2,1.2-3.2,1.8c-1.2,0.6-2.5,1.2-3.9,1.7c-1.4,0.5-2.8,0.9-4.2,1.2c-1.4,0.3-2.7,0.4-4,0.4c-1,0-1.9-0.1-2.9-0.3
		c-0.9-0.2-1.8-0.6-2.5-1.1c-0.7-0.5-1.3-1.3-1.8-2.3c-0.4-1-0.7-2.3-0.7-3.9V248.9z"/>
</defs>
<linearGradient id="SVGID_2_" gradientUnits="userSpaceOnUse" x1="78.4481" y1="249.7756" x2="361.7818" y2="249.7756">
	<stop  offset="0" style="stop-color:#FFFFFF"/>
	<stop  offset="2.111184e-02" style="stop-color:#F0FFFF"/>
	<stop  offset="9.007235e-02" style="stop-color:#C4FFFF"/>
	<stop  offset="0.1566" style="stop-color:#A1FFFF"/>
	<stop  offset="0.2192" style="stop-color:#88FFFF"/>
	<stop  offset="0.2763" style="stop-color:#79FFFF"/>
	<stop  offset="0.3228" style="stop-color:#74FFFF"/>
	<stop  offset="0.6154" style="stop-color:#72FFFF"/>
	<stop  offset="0.7224" style="stop-color:#6BFFFF"/>
	<stop  offset="0.7989" style="stop-color:#5FFFFF"/>
	<stop  offset="0.861" style="stop-color:#4EFFFF"/>
	<stop  offset="0.9141" style="stop-color:#38FFFF"/>
	<stop  offset="0.9605" style="stop-color:#1EFFFF"/>
	<stop  offset="1" style="stop-color:#00FFFF"/>
</linearGradient>
<use xlink:href="#SVGID_1_"  style="overflow:visible;fill:url(#SVGID_2_);"/>
<clipPath id="SVGID_3_">
	<use xlink:href="#SVGID_1_"  style="overflow:visible;"/>
</clipPath>
</svg>
